# xmcd CD database file
#
# Track frame offsets:
#	150
#	20715
#	43220
#	67637
#	88815
#	112617
#	135765
#	152585
#	166922
#	187607
#
# Disc length: 2839 seconds
#
# Revision: 0
# Processed by: cddbd v1.5PL3 Copyright (c) Steve Scherf et al.
# Submitted via: CDex 1.50beta8a
#
DISCID=680b150a
DTITLE=安部　康弘 - FRAME OF MIND
DYEAR=2002
DGENRE=J ポップ
TTITLE0=LADY
TTITLE1=Steppin'
TTITLE2=PUMPS
TTITLE3=黄昏
TTITLE4=So Good So Fine
TTITLE5=瞳の霧
TTITLE6=Where is Love
TTITLE7=KISS MARK
TTITLE8=君は夢の中
TTITLE9=CLOSES YOUR EYES
EXTD=YEAR: 2002.12.09
EXTT0=
EXTT1=
EXTT2=
EXTT3=
EXTT4=
EXTT5=
EXTT6=
EXTT7=
EXTT8=
EXTT9=
PLAYORDER=
